<?xml version="1.0" standalone="no"?>
<!DOCTYPE svg PUBLIC "-//W3C//DTD SVG 20010904//EN"
 "http://www.w3.org/TR/2001/REC-SVG-20010904/DTD/svg10.dtd">
<svg version="1.0" xmlns="http://www.w3.org/2000/svg"
 width="1024.000000pt" height="1024.000000pt" viewBox="0 0 1024.000000 1024.000000"
 preserveAspectRatio="xMidYMid meet">

<g transform="translate(0.000000,1024.000000) scale(0.100000,-0.100000)"
fill="#000000" stroke="none">
<path d="M5050 10174 c-448 -40 -847 -182 -1195 -427 -392 -277 -698 -684
-834 -1112 -48 -151 -49 -153 -70 -265 -34 -178 -41 -316 -41 -867 0 -584 -4
-549 61 -515 26 13 59 17 139 17 90 0 111 -3 147 -22 83 -45 76 -89 71 510 -7
667 2 769 89 1027 88 261 213 465 409 670 247 257 508 413 889 529 81 25 235
51 368 62 175 14 360 2 547 -36 594 -120 1115 -527 1362 -1064 46 -100 104
-286 129 -411 23 -114 23 -122 20 -717 -3 -599 -3 -603 17 -603 11 0 42 10 69
21 67 30 196 30 273 0 30 -11 58 -21 63 -21 10 0 8 678 -3 995 -10 296 -25
398 -90 630 -97 346 -367 760 -661 1011 -370 317 -749 492 -1234 569 -88 15
-436 27 -525 19z"/>
<path d="M8729 7545 c14 -30 40 -61 41 -50 0 6 -12 24 -26 40 -14 17 -21 21
-15 10z"/>
<path d="M8770 7466 c0 -8 4 -17 9 -20 4 -3 11 -20 15 -37 3 -18 9 -29 12 -26
8 8 -18 97 -28 97 -4 0 -8 -6 -8 -14z"/>
<path d="M8810 7325 c0 -27 5 -57 10 -65 7 -11 10 -1 10 35 0 28 -5 57 -10 65
-7 11 -10 1 -10 -35z"/>
<path d="M8831 7160 c0 -30 4 -62 9 -70 12 -19 12 76 0 105 -6 14 -9 5 -9 -35z"/>
<path d="M8851 6988 c-1 -31 4 -60 9 -63 12 -8 12 71 0 100 -6 14 -9 4 -9 -37z"/>
<path d="M8871 6820 c0 -30 4 -62 9 -70 12 -19 12 76 0 105 -6 14 -9 5 -9 -35z"/>
<path d="M8891 6650 c0 -30 4 -62 9 -70 12 -19 12 76 0 105 -6 14 -9 5 -9 -35z"/>
<path d="M1419 6595 c-1 -3 -2 -8 -3 -12 -1 -5 -5 -44 -10 -88 -4 -44 -11
-105 -16 -135 -5 -30 -14 -102 -20 -160 -6 -58 -15 -136 -20 -175 -5 -38 -14
-117 -20 -175 -6 -58 -15 -136 -20 -175 -5 -38 -14 -108 -19 -155 -10 -84 -33
-279 -70 -605 -11 -93 -30 -251 -41 -350 -12 -99 -30 -256 -41 -350 -11 -93
-24 -206 -29 -250 -10 -81 -33 -277 -70 -595 -11 -96 -25 -211 -30 -255 -6
-44 -33 -276 -60 -515 -28 -239 -57 -489 -65 -555 -54 -436 -67 -576 -63 -675
3 -96 6 -112 37 -175 39 -79 132 -180 198 -213 106 -54 130 -58 486 -67 l197
-4 0 79 c0 184 70 392 197 583 120 181 389 386 588 447 22 7 49 16 60 20 22 9
77 22 168 40 74 15 308 15 383 1 275 -53 479 -154 661 -325 220 -207 350 -481
368 -774 2 -37 4 -69 4 -72 1 -3 429 -7 951 -9 l950 -3 0 48 c0 27 7 92 15
144 60 392 323 720 715 894 52 23 156 54 240 72 93 19 382 22 461 4 155 -35
285 -81 372 -132 26 -15 50 -28 54 -28 13 0 132 -92 197 -151 173 -159 301
-375 344 -584 27 -127 32 -161 32 -217 l0 -60 313 4 c288 4 316 6 365 26 79
31 131 65 185 119 61 60 95 117 121 202 25 82 24 141 -2 346 -25 188 -78 637
-116 980 -9 77 -21 176 -26 220 -6 44 -44 370 -85 725 -41 355 -84 719 -95
810 -20 166 -42 353 -80 685 -28 245 -39 337 -50 425 -5 41 -14 120 -20 175
-6 55 -15 129 -20 165 -5 36 -14 115 -20 175 -6 61 -15 137 -20 170 -5 33 -12
95 -16 138 -3 42 -11 77 -16 77 -5 0 -28 -19 -52 -42 -55 -54 -142 -135 -136
-126 3 4 49 52 103 106 l97 98 0 62 c0 33 -4 72 -9 85 -9 24 -16 19 -158 -122
-706 -698 -1549 -1143 -2558 -1350 -27 -6 -126 -22 -220 -36 -93 -15 -176 -31
-183 -38 -10 -8 -12 -21 -6 -46 3 -20 10 -243 14 -496 4 -260 11 -480 17 -505
77 -327 297 -575 603 -677 170 -57 405 -58 575 -1 284 93 484 291 566 558 19
60 19 279 0 345 -53 190 -204 352 -400 428 -95 37 -150 47 -283 54 -169 8
-392 -41 -490 -109 -51 -35 -70 -26 -128 65 -29 45 -77 119 -107 165 -29 46
-51 87 -48 92 8 12 116 70 132 70 7 0 13 4 13 9 0 10 169 60 320 95 173 40
378 42 545 6 28 -6 65 -14 83 -17 18 -3 35 -9 38 -14 3 -5 14 -9 25 -9 10 0
27 -4 37 -9 9 -5 61 -31 116 -57 163 -78 300 -192 412 -341 24 -32 44 -63 44
-70 0 -6 4 -13 8 -15 10 -4 66 -121 82 -173 7 -22 16 -49 21 -60 16 -41 21
-95 26 -265 3 -112 0 -191 -7 -220 -38 -152 -42 -164 -102 -285 -59 -122 -111
-193 -224 -307 -136 -138 -337 -263 -509 -318 -38 -13 -79 -26 -90 -31 -11 -4
-36 -10 -55 -14 -19 -3 -60 -10 -90 -16 -144 -26 -372 -21 -502 12 -159 39
-179 46 -312 108 -123 58 -254 150 -356 251 -75 75 -180 200 -180 216 0 3 -13
24 -28 47 -29 43 -79 145 -101 207 -7 19 -17 44 -21 55 -54 137 -71 342 -66
790 2 204 6 386 10 406 12 58 5 60 -225 57 l-204 -3 4 -40 c1 -22 5 -233 8
-470 4 -433 0 -525 -33 -650 -7 -27 -16 -61 -19 -75 -4 -14 -11 -35 -16 -47
-5 -13 -13 -33 -18 -45 -62 -162 -180 -331 -322 -462 -97 -90 -185 -151 -304
-211 -86 -44 -131 -61 -275 -105 -36 -11 -122 -27 -222 -41 -109 -15 -279 -3
-433 31 -27 6 -62 13 -78 17 -15 3 -30 9 -33 14 -3 5 -14 9 -25 9 -10 0 -27 4
-37 9 -9 5 -28 13 -42 19 -237 96 -464 276 -600 477 -43 64 -118 203 -143 265
-28 70 -29 74 -48 155 -13 56 -39 287 -33 297 6 9 378 11 412 2 19 -6 22 -13
22 -55 0 -54 11 -108 43 -214 66 -216 234 -408 451 -514 114 -56 192 -79 317
-92 344 -38 677 115 862 394 38 58 70 123 107 222 27 73 30 136 30 592 -1 317
3 480 10 487 32 32 -8 86 -65 86 -42 0 -266 41 -435 79 -235 53 -590 165 -775
246 -16 7 -66 28 -110 46 -108 44 -439 212 -550 279 -144 87 -390 255 -520
355 -206 158 -473 392 -592 519 -40 42 -74 74 -74 71z m7251 -496 c-30 -27
-68 -59 -85 -70 -16 -11 6 13 50 54 44 42 82 73 85 71 2 -3 -20 -27 -50 -55z
m-6619 -116 c13 -17 13 -17 -6 -3 -11 8 -22 16 -24 17 -2 2 0 3 6 3 6 0 17 -8
24 -17z m6494 7 c-3 -5 -11 -10 -16 -10 -6 0 -7 5 -4 10 3 6 11 10 16 10 6 0
7 -4 4 -10z m-57 -42 c-7 -7 -22 -20 -33 -28 -15 -10 -14 -7 4 13 14 15 29 27
33 27 5 0 3 -6 -4 -12z m-6313 -66 c-3 -3 -11 0 -18 7 -9 10 -8 11 6 5 10 -3
15 -9 12 -12z m6205 -20 c0 -4 -15 -16 -32 -26 l-33 -17 30 25 c33 29 35 30
35 18z m-6120 -42 c0 -5 -2 -10 -4 -10 -3 0 -8 5 -11 10 -3 6 -1 10 4 10 6 0
11 -4 11 -10z m6022 -30 c-18 -16 -37 -30 -41 -30 -4 0 -17 -9 -30 -21 -12
-12 -24 -19 -27 -16 -4 4 116 97 126 97 2 0 -10 -13 -28 -30z m-5952 -15 c7
-8 9 -15 6 -15 -4 0 -14 7 -22 15 -9 8 -11 15 -6 15 5 0 15 -7 22 -15z m160
-109 c47 -31 81 -56 75 -56 -5 0 -50 28 -100 61 -49 34 -83 59 -75 56 8 -2 53
-30 100 -61z m5680 44 c0 -5 -5 -10 -12 -10 -6 0 -22 -10 -35 -22 -13 -12 -25
-19 -28 -16 -4 4 63 58 72 58 2 0 3 -4 3 -10z m-100 -65 c-7 -8 -17 -15 -22
-15 -11 0 14 29 26 30 5 0 3 -7 -4 -15z m-64 -40 c-11 -8 -24 -15 -30 -15 -5
0 -1 7 10 15 10 8 24 14 29 14 6 0 1 -6 -9 -14z m-5401 -15 c3 -5 2 -10 -4
-10 -5 0 -13 5 -16 10 -3 6 -2 10 4 10 5 0 13 -4 16 -10z m5339 -25 c-10 -8
-23 -15 -28 -15 -6 0 -1 7 10 15 10 8 23 15 28 15 6 0 1 -7 -10 -15z m-5246
-30 c20 -14 33 -25 29 -25 -5 0 -25 11 -45 25 -20 14 -33 25 -29 25 5 0 25
-11 45 -25z m5202 5 c0 -5 -5 -10 -11 -10 -6 0 -24 -9 -41 -21 -16 -12 -31
-19 -34 -16 -3 2 14 16 38 30 50 31 48 30 48 17z m-5100 -66 c0 -2 -13 2 -30
11 -16 9 -30 18 -30 21 0 2 14 -2 30 -11 17 -9 30 -18 30 -21z m4965 -14 c-3
-5 -11 -10 -16 -10 -6 0 -7 5 -4 10 3 6 11 10 16 10 6 0 7 -4 4 -10z m-4832
-47 c9 -3 17 -9 17 -14 0 -13 -5 -12 -47 12 -52 28 -66 44 -23 24 19 -9 43
-18 53 -22z m4797 33 c0 -3 -4 -8 -10 -11 -5 -3 -10 -1 -10 4 0 6 5 11 10 11
6 0 10 -2 10 -4z m-75 -46 c-3 -5 -10 -10 -16 -10 -5 0 -9 5 -9 10 0 6 7 10
16 10 8 0 12 -4 9 -10z m-4665 -20 c0 -5 -4 -10 -9 -10 -6 0 -13 5 -16 10 -3
6 1 10 9 10 9 0 16 -4 16 -10z m40 -20 c0 -5 -4 -10 -9 -10 -6 0 -13 5 -16 10
-3 6 1 10 9 10 9 0 16 -4 16 -10z m56 -26 l29 -16 -30 7 c-16 3 -34 11 -39 16
-16 15 9 11 40 -7z m4374 -24 c0 -5 -4 -10 -10 -10 -5 0 -10 5 -10 10 0 6 5
10 10 10 6 0 10 -4 10 -10z m-4313 -6 c-3 -3 -12 -4 -19 -1 -8 3 -5 6 6 6 11
1 17 -2 13 -5z m4278 -14 c-3 -5 -13 -10 -21 -10 -8 0 -12 5 -9 10 3 6 13 10
21 10 8 0 12 -4 9 -10z m-4238 -6 c-3 -3 -12 -4 -19 -1 -8 3 -5 6 6 6 11 1 17
-2 13 -5z m4188 -14 c-3 -5 -11 -10 -16 -10 -6 0 -7 5 -4 10 3 6 11 10 16 10
6 0 7 -4 4 -10z m-4148 -6 c-3 -3 -12 -4 -19 -1 -8 3 -5 6 6 6 11 1 17 -2 13
-5z m4108 -14 c-3 -5 -10 -10 -16 -10 -5 0 -9 5 -9 10 0 6 7 10 16 10 8 0 12
-4 9 -10z m-4058 -6 c-3 -3 -12 -4 -19 -1 -8 3 -5 6 6 6 11 1 17 -2 13 -5z
m4020 -10 c-3 -3 -12 -4 -19 -1 -8 3 -5 6 6 6 11 1 17 -2 13 -5z m-3970 -10
c-3 -3 -12 -4 -19 -1 -8 3 -5 6 6 6 11 1 17 -2 13 -5z m38 -14 c3 -5 1 -10 -4
-10 -6 0 -11 5 -11 10 0 6 2 10 4 10 3 0 8 -4 11 -10z m3882 4 c-3 -3 -12 -4
-19 -1 -8 3 -5 6 6 6 11 1 17 -2 13 -5z m-3822 -25 c4 -5 -3 -9 -14 -9 -11 0
-22 4 -25 8 -2 4 4 8 14 9 11 1 22 -2 25 -8z m3772 5 c-3 -3 -12 -4 -19 -1 -8
3 -5 6 6 6 11 1 17 -2 13 -5z m-3722 -24 c3 -5 -1 -10 -9 -10 -8 0 -18 5 -21
10 -3 6 1 10 9 10 8 0 18 -4 21 -10z m3678 3 c-7 -2 -19 -2 -25 0 -7 3 -2 5
12 5 14 0 19 -2 13 -5z m-3628 -23 c3 -5 -1 -10 -9 -10 -8 0 -18 5 -21 10 -3
6 1 10 9 10 8 0 18 -4 21 -10z m3572 4 c-3 -3 -12 -4 -19 -1 -8 3 -5 6 6 6 11
1 17 -2 13 -5z m-42 -14 c-3 -5 -14 -10 -23 -10 -15 0 -15 2 -2 10 20 13 33
13 25 0z m-3470 -10 c3 -5 -3 -10 -14 -10 -11 0 -23 5 -26 10 -3 6 3 10 14 10
11 0 23 -4 26 -10z m3420 -10 c-3 -5 -15 -10 -26 -10 -11 0 -17 5 -14 10 3 6
15 10 26 10 11 0 17 -4 14 -10z m-3370 -10 c3 -5 -1 -10 -9 -10 -8 0 -18 5
-21 10 -3 6 1 10 9 10 8 0 18 -4 21 -10z m3305 -10 c0 -5 -7 -10 -15 -10 -8 0
-15 5 -15 10 0 6 7 10 15 10 8 0 15 -4 15 -10z m-3245 -10 c8 -13 -15 -13 -35
0 -12 8 -11 10 7 10 12 0 25 -4 28 -10z m3190 -10 c-27 -12 -35 -12 -35 0 0 6
12 10 28 9 24 0 25 -1 7 -9z m-3133 -12 c-9 -9 -15 -9 -24 0 -9 9 -7 12 12 12
19 0 21 -3 12 -12z m73 -17 c3 -6 -4 -8 -16 -6 -30 6 -37 15 -11 15 11 0 23
-4 27 -9z m58 -18 c-7 -2 -21 -2 -30 0 -10 3 -4 5 12 5 17 0 24 -2 18 -5z m70
-20 c-7 -2 -19 -2 -25 0 -7 3 -2 5 12 5 14 0 19 -2 13 -5z m75 -20 c-10 -2
-26 -2 -35 0 -10 3 -2 5 17 5 19 0 27 -2 18 -5z m80 -20 c-10 -2 -26 -2 -35 0
-10 3 -2 5 17 5 19 0 27 -2 18 -5z m80 -20 c-10 -2 -26 -2 -35 0 -10 3 -2 5
17 5 19 0 27 -2 18 -5z m100 -20 c-10 -2 -26 -2 -35 0 -10 3 -2 5 17 5 19 0
27 -2 18 -5z m112 -13 c11 -7 3 -10 -30 -9 -34 0 -40 2 -25 9 27 12 37 12 55
0z m1790 -10 c-36 -12 -62 -12 -55 0 3 6 23 10 43 9 33 -1 34 -2 12 -9z
m-1695 -10 c17 -7 14 -9 -13 -9 -20 -1 -31 3 -27 9 7 12 13 12 40 0z m1581
-11 c-26 -6 -43 -6 -50 1 -7 7 6 10 40 9 l49 -1 -39 -9z m-87 -13 c-10 -8
-119 -14 -119 -5 0 5 28 9 62 9 34 0 59 -2 57 -4z m-644 -36 c7 -12 -287 -12
-325 0 -15 5 45 8 147 9 105 1 174 -3 178 -9z"/>
<path d="M2840 1824 c-89 -14 -160 -31 -225 -54 -42 -14 -162 -75 -205 -104
-67 -46 -198 -174 -239 -236 -47 -70 -93 -162 -110 -220 -7 -25 -18 -58 -24
-74 -6 -17 -11 -100 -12 -185 0 -150 3 -172 37 -276 125 -381 515 -641 933
-622 437 20 792 317 875 732 18 92 3 376 -21 391 -5 3 -9 14 -9 25 0 10 -4 27
-9 37 -6 9 -24 46 -41 81 -121 248 -379 441 -660 492 -67 12 -246 20 -290 13z
m230 -686 c135 -72 162 -267 49 -363 -163 -137 -408 -38 -408 165 -1 98 76
197 170 221 53 13 141 2 189 -23z"/>
<path d="M7180 1808 c-133 -16 -276 -62 -380 -123 -81 -48 -196 -144 -254
-214 -56 -67 -146 -230 -146 -264 0 -8 -3 -17 -7 -21 -29 -28 -49 -252 -34
-361 18 -121 23 -145 32 -151 5 -3 9 -13 9 -23 0 -10 13 -45 29 -78 129 -265
348 -439 644 -512 128 -31 319 -30 447 4 103 27 232 85 307 136 124 85 248
231 307 360 63 140 79 221 73 389 -5 142 -13 207 -28 216 -5 3 -9 14 -9 25 0
10 -4 27 -9 37 -5 9 -23 46 -40 82 -107 222 -332 401 -591 471 -41 11 -238 39
-260 37 -8 0 -49 -5 -90 -10z m237 -694 c24 -14 56 -44 71 -66 24 -37 27 -51
27 -123 0 -72 -3 -86 -28 -123 -15 -23 -46 -54 -69 -69 -38 -25 -50 -28 -132
-28 -85 0 -94 2 -136 30 -24 17 -58 52 -75 79 -25 41 -30 60 -30 110 2 186
203 289 372 190z"/>
</g>
</svg>
