<?xml version="1.0" encoding="UTF-8"?>
<!DOCTYPE svg PUBLIC "-//W3C//DTD SVG 1.1//EN" "http://www.w3.org/Graphics/SVG/1.1/DTD/svg11.dtd">
<svg xmlns="http://www.w3.org/2000/svg" version="1.1" width="887px" height="671px" style="shape-rendering:geometricPrecision; text-rendering:geometricPrecision; image-rendering:optimizeQuality; fill-rule:evenodd; clip-rule:evenodd" xmlns:xlink="http://www.w3.org/1999/xlink">
<g><path style="opacity:0.919" fill="#020000" d="M 597.5,169.5 C 596.883,169.611 596.383,169.944 596,170.5C 595.5,187.497 595.333,204.497 595.5,221.5C 587.022,218.635 578.689,218.968 570.5,222.5C 570.83,204.659 570.497,186.992 569.5,169.5C 570.473,120.57 550.14,84.0702 508.5,60C 489.655,51.0469 470.155,46.2136 450,45.5C 409.858,47.9648 377.692,64.6315 353.5,95.5C 345.067,107.595 339.234,120.928 336,135.5C 335.444,142.26 334.277,148.76 332.5,155C 335.119,159.45 335.119,163.95 332.5,168.5C 331.527,186.12 331.194,203.786 331.5,221.5C 323.211,217.506 314.877,217.506 306.5,221.5C 307.153,203.468 306.486,185.802 304.5,168.5C 303.671,130.026 315.505,96.3593 340,67.5C 370.403,36.0875 407.57,19.7541 451.5,18.5C 495.829,20.1421 532.995,36.8088 563,68.5C 574.337,82.868 583.67,98.5346 591,115.5C 596.898,133.093 599.064,151.093 597.5,169.5 Z M 569.5,169.5 C 569.167,169.5 568.833,169.5 568.5,169.5C 489.841,168.539 411.175,168.206 332.5,168.5C 335.119,163.95 335.119,159.45 332.5,155C 334.277,148.76 335.444,142.26 336,135.5C 339.234,120.928 345.067,107.595 353.5,95.5C 377.692,64.6315 409.858,47.9648 450,45.5C 470.155,46.2136 489.655,51.0469 508.5,60C 550.14,84.0702 570.473,120.57 569.5,169.5 Z"/></g>
<g><path style="opacity:0.584" fill="#f6970a" d="M 332.5,168.5 C 411.175,168.206 489.841,168.539 568.5,169.5C 490.174,171.497 411.507,172.164 332.5,171.5C 332.5,188.167 332.5,204.833 332.5,221.5C 332.167,221.5 331.833,221.5 331.5,221.5C 331.194,203.786 331.527,186.12 332.5,168.5 Z"/></g>
<g><path style="opacity:1" fill="#fdb401" d="M 304.5,168.5 C 306.486,185.802 307.153,203.468 306.5,221.5C 296.295,228.824 293.628,238.491 298.5,250.5C 311.215,264.764 324.381,265.098 338,251.5C 341.7,245.171 342.366,238.505 340,231.5C 337.565,228.057 335.065,224.724 332.5,221.5C 332.5,204.833 332.5,188.167 332.5,171.5C 411.507,172.164 490.174,171.497 568.5,169.5C 568.833,169.5 569.167,169.5 569.5,169.5C 570.497,186.992 570.83,204.659 570.5,222.5C 560.495,231.949 558.995,242.616 566,254.5C 576.512,264.034 587.678,264.868 599.5,257C 606.997,248.926 608.497,239.759 604,229.5C 601.63,226.961 599.13,224.628 596.5,222.5C 596.194,204.786 596.527,187.12 597.5,169.5C 614.513,169.167 631.513,169.501 648.5,170.5C 655.909,171.792 662.409,174.792 668,179.5C 668.791,180.745 669.291,182.078 669.5,183.5C 671.13,186.675 672.63,190.009 674,193.5C 674.281,198.215 674.781,202.882 675.5,207.5C 676.373,221.231 677.706,234.898 679.5,248.5C 679.5,249.167 679.5,249.833 679.5,250.5C 634.863,296.326 581.197,326.326 518.5,340.5C 515.772,340.171 513.438,340.837 511.5,342.5C 508.119,342.46 504.786,342.793 501.5,343.5C 496.42,343.878 491.42,344.545 486.5,345.5C 486.666,335.161 486.5,324.828 486,314.5C 477.912,313.352 469.746,313.185 461.5,314C 460.513,325.085 460.179,336.252 460.5,347.5C 451.5,347.5 442.5,347.5 433.5,347.5C 433.5,336.167 433.5,324.833 433.5,313.5C 425.167,313.5 416.833,313.5 408.5,313.5C 408.5,323.833 408.5,334.167 408.5,344.5C 403.561,343.589 398.561,342.756 393.5,342C 395.167,341.667 396.833,341.333 398.5,341C 391.816,340.61 385.15,340.11 378.5,339.5C 353.309,334.57 329.309,326.237 306.5,314.5C 295.304,308.667 284.304,302.333 273.5,295.5C 265.509,289.503 257.509,283.503 249.5,277.5C 238.172,267.505 227.172,257.172 216.5,246.5C 215.292,243.956 213.292,242.622 210.5,242.5C 212.435,227.049 214.102,211.549 215.5,196C 219.058,182.108 227.725,173.108 241.5,169C 262.497,168.5 283.497,168.333 304.5,168.5 Z"/></g>
<g><path style="opacity:1" fill="#721902" d="M 597.5,169.5 C 596.527,187.12 596.194,204.786 596.5,222.5C 595.833,222.5 595.5,222.167 595.5,221.5C 595.333,204.497 595.5,187.497 596,170.5C 596.383,169.944 596.883,169.611 597.5,169.5 Z"/></g>
<g><path style="opacity:0.455" fill="#a9462a" d="M 669.5,183.5 C 670.496,183.414 671.329,183.748 672,184.5C 673.502,187.674 675.002,190.841 676.5,194C 678.271,211.207 680.271,228.374 682.5,245.5C 680.539,242.551 679.373,239.218 679,235.5C 678.547,225.931 677.38,216.598 675.5,207.5C 674.781,202.882 674.281,198.215 674,193.5C 672.63,190.009 671.13,186.675 669.5,183.5 Z"/></g>
<g><path style="opacity:1" fill="#fefdfa" d="M 331.5,221.5 C 331.833,221.5 332.167,221.5 332.5,221.5C 335.065,224.724 337.565,228.057 340,231.5C 342.366,238.505 341.7,245.171 338,251.5C 324.381,265.098 311.215,264.764 298.5,250.5C 293.628,238.491 296.295,228.824 306.5,221.5C 314.877,217.506 323.211,217.506 331.5,221.5 Z"/></g>
<g><path style="opacity:1" fill="#fefcfa" d="M 595.5,221.5 C 595.5,222.167 595.833,222.5 596.5,222.5C 599.13,224.628 601.63,226.961 604,229.5C 608.497,239.759 606.997,248.926 599.5,257C 587.678,264.868 576.512,264.034 566,254.5C 558.995,242.616 560.495,231.949 570.5,222.5C 578.689,218.968 587.022,218.635 595.5,221.5 Z"/></g>
<g><path style="opacity:1" fill="#ec8b0f" d="M 675.5,207.5 C 677.38,216.598 678.547,225.931 679,235.5C 679.373,239.218 680.539,242.551 682.5,245.5C 682.5,246.167 682.5,246.833 682.5,247.5C 681.609,248.11 680.609,248.443 679.5,248.5C 677.706,234.898 676.373,221.231 675.5,207.5 Z"/></g>
<g><path style="opacity:1" fill="#fc6100" d="M 216.5,246.5 C 227.172,257.172 238.172,267.505 249.5,277.5C 249.921,279.91 251.254,281.743 253.5,283C 259.99,287.331 266.324,291.831 272.5,296.5C 283.564,303.696 294.897,310.363 306.5,316.5C 328.51,328.506 351.844,337.173 376.5,342.5C 378.515,343.924 380.848,344.59 383.5,344.5C 391.558,346.749 399.892,348.082 408.5,348.5C 408.5,348.833 408.5,349.167 408.5,349.5C 407.668,370.329 407.168,391.329 407,412.5C 405.368,416.032 404.201,419.699 403.5,423.5C 396.236,437.771 385.236,447.771 370.5,453.5C 359.628,456.38 348.628,457.047 337.5,455.5C 334.659,454.331 331.659,453.331 328.5,452.5C 327.341,450.75 325.674,449.75 323.5,449.5C 319.658,448.319 316.324,446.319 313.5,443.5C 308.841,437.84 304.174,432.173 299.5,426.5C 296.451,418.7 294.451,410.7 293.5,402.5C 285.35,401.507 277.017,401.174 268.5,401.5C 268.334,406.179 268.501,410.845 269,415.5C 269.098,418.522 269.932,421.189 271.5,423.5C 278.995,445.316 292.995,461.816 313.5,473C 319.814,475.935 326.48,477.769 333.5,478.5C 333.611,479.117 333.944,479.617 334.5,480C 343.3,481.6 351.967,481.767 360.5,480.5C 398.298,474.209 422.465,452.543 433,415.5C 433.5,394.503 433.667,373.503 433.5,352.5C 442.5,352.5 451.5,352.5 460.5,352.5C 460.333,370.836 460.5,389.17 461,407.5C 461.183,410.365 461.683,413.031 462.5,415.5C 469,443.683 485.333,463.85 511.5,476C 516.039,477.7 520.706,478.867 525.5,479.5C 534.179,482.26 543.179,483.094 552.5,482C 553.416,481.722 554.082,481.222 554.5,480.5C 559.543,479.992 564.543,479.158 569.5,478C 594.527,469.364 611.861,452.864 621.5,428.5C 623.018,425.466 623.851,422.133 624,418.5C 624.667,410.833 624.667,403.167 624,395.5C 623.721,392.543 622.887,389.877 621.5,387.5C 619.4,381.538 616.566,375.871 613,370.5C 607.616,364.613 601.783,359.28 595.5,354.5C 587.655,350.24 579.655,346.573 571.5,343.5C 562.398,341.73 553.065,341.063 543.5,341.5C 545.5,340.5 547.5,339.5 549.5,338.5C 551.599,337.388 553.933,336.721 556.5,336.5C 558.967,336.245 560.967,335.245 562.5,333.5C 597.99,321.261 629.99,303.095 658.5,279C 666.391,271.604 674.391,264.437 682.5,257.5C 682.196,258.15 681.863,258.817 681.5,259.5C 689.968,324.532 697.968,389.532 705.5,454.5C 706.777,455.694 707.444,457.36 707.5,459.5C 710.95,489.935 714.45,520.269 718,550.5C 718.667,561.167 718.667,571.833 718,582.5C 711.355,595.591 700.522,602.591 685.5,603.5C 674.519,602.62 663.519,602.286 652.5,602.5C 651.55,568.632 635.55,545.465 604.5,533C 570.676,523.373 542.343,531.54 519.5,557.5C 517.64,561.24 515.307,564.574 512.5,567.5C 511.85,567.804 511.183,568.137 510.5,568.5C 505.978,578.356 503.645,588.689 503.5,599.5C 463.833,599.5 424.167,599.5 384.5,599.5C 384.664,590.165 382.664,581.499 378.5,573.5C 377.624,573.631 376.957,573.298 376.5,572.5C 374.326,565.866 370.826,560.199 366,555.5C 365.086,553.336 363.919,551.336 362.5,549.5C 333.935,524.868 302.768,521.201 269,538.5C 262.807,543.264 256.807,548.264 251,553.5C 240.438,567.655 235.271,583.655 235.5,601.5C 223.149,601.832 210.815,601.499 198.5,600.5C 192.967,598.837 187.967,596.337 183.5,593C 180.416,590.436 178.416,587.27 177.5,583.5C 176.641,578.702 175.974,573.869 175.5,569C 176.26,545.229 179.093,521.729 184,498.5C 185.565,482.189 186.731,465.855 187.5,449.5C 189.652,426.16 191.985,402.827 194.5,379.5C 194.556,377.36 195.223,375.694 196.5,374.5C 201.241,333.163 206.408,291.83 212,250.5C 212.333,248.5 212.667,246.5 213,244.5C 213.816,245.823 214.983,246.489 216.5,246.5 Z"/></g>
<g><path style="opacity:0.961" fill="#421947" d="M 682.5,247.5 C 683.414,250.728 683.747,254.061 683.5,257.5C 683.167,257.5 682.833,257.5 682.5,257.5C 681.344,255.176 680.344,252.843 679.5,250.5C 679.5,249.833 679.5,249.167 679.5,248.5C 680.609,248.443 681.609,248.11 682.5,247.5 Z"/></g>
<g><path style="opacity:1" fill="#b33015" d="M 249.5,277.5 C 257.509,283.503 265.509,289.503 273.5,295.5C 272.833,295.5 272.5,295.833 272.5,296.5C 266.324,291.831 259.99,287.331 253.5,283C 251.254,281.743 249.921,279.91 249.5,277.5 Z"/></g>
<g><path style="opacity:1" fill="#1d0293" d="M 679.5,250.5 C 680.344,252.843 681.344,255.176 682.5,257.5C 674.391,264.437 666.391,271.604 658.5,279C 629.99,303.095 597.99,321.261 562.5,333.5C 560.033,333.755 558.033,334.755 556.5,336.5C 553.933,336.721 551.599,337.388 549.5,338.5C 533.465,342.511 517.465,346.178 501.5,349.5C 501.167,349.5 500.833,349.5 500.5,349.5C 495.819,349.669 491.152,350.002 486.5,350.5C 485.167,349.167 485.167,347.833 486.5,346.5C 491.752,346.138 496.752,345.138 501.5,343.5C 504.786,342.793 508.119,342.46 511.5,342.5C 514.152,342.59 516.485,341.924 518.5,340.5C 581.197,326.326 634.863,296.326 679.5,250.5 Z"/></g>
<g><path style="opacity:1" fill="#4a1251" d="M 272.5,296.5 C 272.5,295.833 272.833,295.5 273.5,295.5C 284.304,302.333 295.304,308.667 306.5,314.5C 305.494,314.938 305.494,315.604 306.5,316.5C 294.897,310.363 283.564,303.696 272.5,296.5 Z"/></g>
<g><path style="opacity:1" fill="#fffdfa" d="M 433.5,347.5 C 433.5,348.833 433.5,350.167 433.5,351.5C 433.5,351.833 433.5,352.167 433.5,352.5C 433.667,373.503 433.5,394.503 433,415.5C 422.465,452.543 398.298,474.209 360.5,480.5C 351.41,480.829 342.41,480.162 333.5,478.5C 326.48,477.769 319.814,475.935 313.5,473C 292.995,461.816 278.995,445.316 271.5,423.5C 270.271,416.559 269.604,409.559 269.5,402.5C 277.5,402.5 285.5,402.5 293.5,402.5C 294.451,410.7 296.451,418.7 299.5,426.5C 304.174,432.173 308.841,437.84 313.5,443.5C 316.324,446.319 319.658,448.319 323.5,449.5C 324.486,451.408 326.152,452.408 328.5,452.5C 331.659,453.331 334.659,454.331 337.5,455.5C 338.263,456.268 339.263,456.768 340.5,457C 347.5,457.667 354.5,457.667 361.5,457C 364.662,455.973 367.662,454.806 370.5,453.5C 385.236,447.771 396.236,437.771 403.5,423.5C 405.307,420.531 406.807,417.198 408,413.5C 408.5,392.169 408.667,370.836 408.5,349.5C 408.5,349.167 408.5,348.833 408.5,348.5C 408.5,347.5 408.5,346.5 408.5,345.5C 408.5,345.167 408.5,344.833 408.5,344.5C 408.5,334.167 408.5,323.833 408.5,313.5C 416.833,313.5 425.167,313.5 433.5,313.5C 433.5,324.833 433.5,336.167 433.5,347.5 Z"/></g>
<g><path style="opacity:1" fill="#fffdfa" d="M 486.5,345.5 C 486.5,345.833 486.5,346.167 486.5,346.5C 485.167,347.833 485.167,349.167 486.5,350.5C 486.5,350.833 486.5,351.167 486.5,351.5C 485.338,371.329 485.171,391.329 486,411.5C 486.377,412.942 487.21,413.942 488.5,414.5C 494.8,436.002 508.467,450.002 529.5,456.5C 537.854,459.027 546.187,459.027 554.5,456.5C 568.192,453.654 579.692,446.988 589,436.5C 607.959,407.502 602.126,385.002 571.5,369C 557.848,365.729 544.181,365.729 530.5,369C 529.833,370.333 528.833,371.333 527.5,372C 524.745,372.849 522.079,373.516 519.5,374C 515.851,368.065 512.017,362.232 508,356.5C 507.421,355.072 507.588,353.738 508.5,352.5C 512.196,351.819 515.529,350.319 518.5,348C 526.081,346.868 533.414,345.035 540.5,342.5C 550.852,342.399 561.185,342.733 571.5,343.5C 579.655,346.573 587.655,350.24 595.5,354.5C 601.783,359.28 607.616,364.613 613,370.5C 616.566,375.871 619.4,381.538 621.5,387.5C 622.813,401.162 622.813,414.829 621.5,428.5C 611.861,452.864 594.527,469.364 569.5,478C 564.543,479.158 559.543,479.992 554.5,480.5C 544.815,480.578 535.148,480.245 525.5,479.5C 520.706,478.867 516.039,477.7 511.5,476C 485.333,463.85 469,443.683 462.5,415.5C 461.691,394.51 461.357,373.51 461.5,352.5C 461.768,350.901 461.434,349.568 460.5,348.5C 460.5,348.167 460.5,347.833 460.5,347.5C 461.494,337.013 461.828,326.346 461.5,315.5C 469.5,315.5 477.5,315.5 485.5,315.5C 485.173,325.681 485.506,335.681 486.5,345.5 Z"/></g>
<g><path style="opacity:1" fill="#ffeda9" d="M 486.5,345.5 C 485.506,335.681 485.173,325.681 485.5,315.5C 477.5,315.5 469.5,315.5 461.5,315.5C 461.828,326.346 461.494,337.013 460.5,347.5C 460.179,336.252 460.513,325.085 461.5,314C 469.746,313.185 477.912,313.352 486,314.5C 486.5,324.828 486.666,335.161 486.5,345.5 Z"/></g>
<g><path style="opacity:1" fill="#340583" d="M 306.5,314.5 C 329.309,326.237 353.309,334.57 378.5,339.5C 378.918,340.222 379.584,340.722 380.5,341C 389.776,342.956 399.109,344.456 408.5,345.5C 408.5,346.5 408.5,347.5 408.5,348.5C 399.892,348.082 391.558,346.749 383.5,344.5C 381.485,343.076 379.152,342.41 376.5,342.5C 351.844,337.173 328.51,328.506 306.5,316.5C 305.494,315.604 305.494,314.938 306.5,314.5 Z"/></g>
<g><path style="opacity:1" fill="#7a1a33" d="M 562.5,333.5 C 560.967,335.245 558.967,336.245 556.5,336.5C 558.033,334.755 560.033,333.755 562.5,333.5 Z"/></g>
<g><path style="opacity:0.272" fill="#f97300" d="M 210.5,242.5 C 213.292,242.622 215.292,243.956 216.5,246.5C 214.983,246.489 213.816,245.823 213,244.5C 212.667,246.5 212.333,248.5 212,250.5C 206.408,291.83 201.241,333.163 196.5,374.5C 200.62,330.53 205.286,286.53 210.5,242.5 Z"/></g>
<g><path style="opacity:1" fill="#d08126" d="M 378.5,339.5 C 385.15,340.11 391.816,340.61 398.5,341C 396.833,341.333 395.167,341.667 393.5,342C 398.561,342.756 403.561,343.589 408.5,344.5C 408.5,344.833 408.5,345.167 408.5,345.5C 399.109,344.456 389.776,342.956 380.5,341C 379.584,340.722 378.918,340.222 378.5,339.5 Z"/></g>
<g><path style="opacity:1" fill="#6d234d" d="M 518.5,340.5 C 516.485,341.924 514.152,342.59 511.5,342.5C 513.438,340.837 515.772,340.171 518.5,340.5 Z"/></g>
<g><path style="opacity:1" fill="#ff9823" d="M 540.5,342.5 C 541.209,341.596 542.209,341.263 543.5,341.5C 553.065,341.063 562.398,341.73 571.5,343.5C 561.185,342.733 550.852,342.399 540.5,342.5 Z"/></g>
<g><path style="opacity:1" fill="#56094b" d="M 376.5,342.5 C 379.152,342.41 381.485,343.076 383.5,344.5C 380.848,344.59 378.515,343.924 376.5,342.5 Z"/></g>
<g><path style="opacity:1" fill="#74354a" d="M 501.5,343.5 C 496.752,345.138 491.752,346.138 486.5,346.5C 486.5,346.167 486.5,345.833 486.5,345.5C 491.42,344.545 496.42,343.878 501.5,343.5 Z"/></g>
<g><path style="opacity:1" fill="#300593" d="M 433.5,347.5 C 442.5,347.5 451.5,347.5 460.5,347.5C 460.5,347.833 460.5,348.167 460.5,348.5C 460.5,349.5 460.5,350.5 460.5,351.5C 451.5,351.5 442.5,351.5 433.5,351.5C 433.5,350.167 433.5,348.833 433.5,347.5 Z"/></g>
<g><path style="opacity:1" fill="#a72e1d" d="M 500.5,349.5 C 496.1,351.104 491.434,351.771 486.5,351.5C 486.5,351.167 486.5,350.833 486.5,350.5C 491.152,350.002 495.819,349.669 500.5,349.5 Z"/></g>
<g><path style="opacity:1" fill="#d4541c" d="M 549.5,338.5 C 547.5,339.5 545.5,340.5 543.5,341.5C 542.209,341.263 541.209,341.596 540.5,342.5C 533.414,345.035 526.081,346.868 518.5,348C 515.529,350.319 512.196,351.819 508.5,352.5C 507.668,351.671 508.001,350.838 509.5,350C 506.854,349.503 504.187,349.336 501.5,349.5C 517.465,346.178 533.465,342.511 549.5,338.5 Z"/></g>
<g><path style="opacity:1" fill="#feb131" d="M 408.5,349.5 C 408.667,370.836 408.5,392.169 408,413.5C 406.807,417.198 405.307,420.531 403.5,423.5C 404.201,419.699 405.368,416.032 407,412.5C 407.168,391.329 407.668,370.329 408.5,349.5 Z"/></g>
<g><path style="opacity:1" fill="#351265" d="M 460.5,348.5 C 461.434,349.568 461.768,350.901 461.5,352.5C 461.167,352.5 460.833,352.5 460.5,352.5C 451.5,352.5 442.5,352.5 433.5,352.5C 433.5,352.167 433.5,351.833 433.5,351.5C 442.5,351.5 451.5,351.5 460.5,351.5C 460.5,350.5 460.5,349.5 460.5,348.5 Z"/></g>
<g><path style="opacity:1" fill="#fd6201" d="M 500.5,349.5 C 500.833,349.5 501.167,349.5 501.5,349.5C 504.187,349.336 506.854,349.503 509.5,350C 508.001,350.838 507.668,351.671 508.5,352.5C 507.588,353.738 507.421,355.072 508,356.5C 512.017,362.232 515.851,368.065 519.5,374C 522.079,373.516 524.745,372.849 527.5,372C 528.833,371.333 529.833,370.333 530.5,369C 544.181,365.729 557.848,365.729 571.5,369C 602.126,385.002 607.959,407.502 589,436.5C 579.692,446.988 568.192,453.654 554.5,456.5C 546.183,457.505 537.85,457.505 529.5,456.5C 508.467,450.002 494.8,436.002 488.5,414.5C 488.819,412.25 488.319,410.25 487,408.5C 486.5,389.503 486.333,370.503 486.5,351.5C 491.434,351.771 496.1,351.104 500.5,349.5 Z"/></g>
<g><path style="opacity:1" fill="#ffd785" d="M 486.5,351.5 C 486.333,370.503 486.5,389.503 487,408.5C 488.319,410.25 488.819,412.25 488.5,414.5C 487.21,413.942 486.377,412.942 486,411.5C 485.171,391.329 485.338,371.329 486.5,351.5 Z"/></g>
<g><path style="opacity:1" fill="#ffcb6d" d="M 460.5,352.5 C 460.833,352.5 461.167,352.5 461.5,352.5C 461.357,373.51 461.691,394.51 462.5,415.5C 461.683,413.031 461.183,410.365 461,407.5C 460.5,389.17 460.333,370.836 460.5,352.5 Z"/></g>
<g><path style="opacity:1" fill="#ffedb4" d="M 621.5,387.5 C 622.887,389.877 623.721,392.543 624,395.5C 624.667,403.167 624.667,410.833 624,418.5C 623.851,422.133 623.018,425.466 621.5,428.5C 622.813,414.829 622.813,401.162 621.5,387.5 Z"/></g>
<g><path style="opacity:1" fill="#ffd481" d="M 293.5,402.5 C 285.5,402.5 277.5,402.5 269.5,402.5C 269.604,409.559 270.271,416.559 271.5,423.5C 269.932,421.189 269.098,418.522 269,415.5C 268.501,410.845 268.334,406.179 268.5,401.5C 277.017,401.174 285.35,401.507 293.5,402.5 Z"/></g>
<g><path style="opacity:0.231" fill="#f97400" d="M 682.5,257.5 C 682.833,257.5 683.167,257.5 683.5,257.5C 689.871,308.889 696.037,360.222 702,411.5C 703.558,425.807 704.725,440.14 705.5,454.5C 697.968,389.532 689.968,324.532 681.5,259.5C 681.863,258.817 682.196,258.15 682.5,257.5 Z"/></g>
<g><path style="opacity:1" fill="#ffc871" d="M 323.5,449.5 C 325.674,449.75 327.341,450.75 328.5,452.5C 326.152,452.408 324.486,451.408 323.5,449.5 Z"/></g>
<g><path style="opacity:1" fill="#ffdb8f" d="M 370.5,453.5 C 367.662,454.806 364.662,455.973 361.5,457C 354.5,457.667 347.5,457.667 340.5,457C 339.263,456.768 338.263,456.268 337.5,455.5C 348.628,457.047 359.628,456.38 370.5,453.5 Z"/></g>
<g><path style="opacity:1" fill="#ffd177" d="M 529.5,456.5 C 537.85,457.505 546.183,457.505 554.5,456.5C 546.187,459.027 537.854,459.027 529.5,456.5 Z"/></g>
<g><path style="opacity:1" fill="#feb24c" d="M 333.5,478.5 C 342.41,480.162 351.41,480.829 360.5,480.5C 351.967,481.767 343.3,481.6 334.5,480C 333.944,479.617 333.611,479.117 333.5,478.5 Z"/></g>
<g><path style="opacity:1" fill="#ffd28d" d="M 525.5,479.5 C 535.148,480.245 544.815,480.578 554.5,480.5C 554.082,481.222 553.416,481.722 552.5,482C 543.179,483.094 534.179,482.26 525.5,479.5 Z"/></g>
<g><path style="opacity:0.998" fill="#040204" d="M 301.5,541.5 C 303.397,542.805 305.731,543.471 308.5,543.5C 311.269,543.471 313.603,542.805 315.5,541.5C 326.04,542.714 335.707,546.214 344.5,552C 346.899,553.98 348.899,556.147 350.5,558.5C 353.259,563.23 356.592,567.563 360.5,571.5C 362.129,575.351 363.129,579.351 363.5,583.5C 364.5,583.5 365.5,583.5 366.5,583.5C 367.805,592.846 367.805,602.179 366.5,611.5C 365.504,611.414 364.671,611.748 364,612.5C 361.031,623.115 355.531,632.115 347.5,639.5C 347.631,640.239 347.464,640.906 347,641.5C 340.224,646.473 332.724,650.306 324.5,653C 314.167,653.667 303.833,653.667 293.5,653C 291.122,652.489 288.788,651.822 286.5,651C 280.883,648.355 275.55,645.355 270.5,642C 267.5,638.833 264.5,635.667 261.5,632.5C 259.666,630.023 258.333,627.357 257.5,624.5C 254.998,619.836 253.165,614.836 252,609.5C 251.329,608.748 250.496,608.414 249.5,608.5C 249.5,607.167 249.5,605.833 249.5,604.5C 250.117,604.389 250.617,604.056 251,603.5C 251.167,601.333 251.333,599.167 251.5,597C 251.467,594.39 250.8,592.223 249.5,590.5C 249.5,589.5 249.5,588.5 249.5,587.5C 250.5,587.5 251.5,587.5 252.5,587.5C 252.34,585.801 252.506,584.134 253,582.5C 255.125,577.962 256.958,573.295 258.5,568.5C 268.049,552.37 282.383,543.37 301.5,541.5 Z"/></g>
<g><path style="opacity:0.341" fill="#52386b" d="M 586.5,543.5 C 581.5,543.5 576.5,543.5 571.5,543.5C 573.571,542.191 576.071,541.525 579,541.5C 581.929,541.525 584.429,542.191 586.5,543.5 Z"/></g>
<g><path style="opacity:1" fill="#332243" d="M 315.5,541.5 C 313.603,542.805 311.269,543.471 308.5,543.5C 305.731,543.471 303.397,542.805 301.5,541.5C 306.267,540.203 310.934,540.203 315.5,541.5 Z"/></g>
<g><path style="opacity:0.998" fill="#040203" d="M 571.5,543.5 C 576.5,543.5 581.5,543.5 586.5,543.5C 605.19,544.457 619.19,552.79 628.5,568.5C 630.038,572.602 631.871,576.602 634,580.5C 634.787,584.179 635.621,587.846 636.5,591.5C 637.183,591.863 637.85,592.196 638.5,592.5C 638.5,596.833 638.5,601.167 638.5,605.5C 637.85,605.804 637.183,606.137 636.5,606.5C 635.003,614.662 632.336,622.329 628.5,629.5C 627.52,632.116 626.02,634.449 624,636.5C 605.18,654.727 583.013,659.893 557.5,652C 554.121,649.644 550.454,647.811 546.5,646.5C 540.795,641.868 535.295,636.868 530,631.5C 529.517,630.552 529.351,629.552 529.5,628.5C 526.462,622.554 524.295,616.22 523,609.5C 522.329,608.748 521.496,608.414 520.5,608.5C 520.5,607.167 520.5,605.833 520.5,604.5C 521.8,602.777 522.467,600.61 522.5,598C 522.467,595.39 521.8,593.223 520.5,591.5C 520.401,588.763 520.735,586.096 521.5,583.5C 523.257,582.708 524.591,581.375 525.5,579.5C 527.129,575.915 528.462,572.248 529.5,568.5C 533.855,563.813 538.188,559.146 542.5,554.5C 550.439,546.747 560.105,543.08 571.5,543.5 Z"/></g>
<g><path style="opacity:0.522" fill="#483567" d="M 542.5,554.5 C 538.188,559.146 533.855,563.813 529.5,568.5C 529.962,566.243 530.962,564.243 532.5,562.5C 535.439,559.216 538.773,556.55 542.5,554.5 Z"/></g>
<g><path style="opacity:0.283" fill="#f97100" d="M 187.5,449.5 C 186.731,465.855 185.565,482.189 184,498.5C 179.093,521.729 176.26,545.229 175.5,569C 175.974,573.869 176.641,578.702 177.5,583.5C 175.836,582.257 174.669,580.59 174,578.5C 173.333,571.167 173.333,563.833 174,556.5C 177.533,526.003 181.033,495.503 184.5,465C 185.464,459.682 186.464,454.515 187.5,449.5 Z"/></g>
<g><path style="opacity:0.235" fill="#43305c" d="M 350.5,558.5 C 359.002,564.695 364.335,573.028 366.5,583.5C 365.5,583.5 364.5,583.5 363.5,583.5C 363.129,579.351 362.129,575.351 360.5,571.5C 356.592,567.563 353.259,563.23 350.5,558.5 Z"/></g>
<g><path style="opacity:0.796" fill="#3e2c55" d="M 258.5,568.5 C 256.958,573.295 255.125,577.962 253,582.5C 252.506,584.134 252.34,585.801 252.5,587.5C 251.5,587.5 250.5,587.5 249.5,587.5C 251.033,582.092 252.866,576.759 255,571.5C 256.039,570.29 257.206,569.29 258.5,568.5 Z"/></g>
<g><path style="opacity:1" fill="#312444" d="M 529.5,568.5 C 528.462,572.248 527.129,575.915 525.5,579.5C 524.591,581.375 523.257,582.708 521.5,583.5C 522.994,579.547 524.494,575.547 526,571.5C 526.759,569.937 527.926,568.937 529.5,568.5 Z"/></g>
<g><path style="opacity:0.092" fill="#45325f" d="M 628.5,568.5 C 629.794,569.29 630.961,570.29 632,571.5C 636.079,577.903 638.245,584.903 638.5,592.5C 637.85,592.196 637.183,591.863 636.5,591.5C 635.621,587.846 634.787,584.179 634,580.5C 631.871,576.602 630.038,572.602 628.5,568.5 Z"/></g>
<g><path style="opacity:1" fill="#f8f4f6" d="M 302.5,583.5 C 310.142,582.102 316.642,584.102 322,589.5C 325.396,597.863 323.563,604.697 316.5,610C 307.15,613.736 299.817,611.569 294.5,603.5C 291.53,594.385 294.196,587.718 302.5,583.5 Z"/></g>
<g><path style="opacity:1" fill="#faf8f9" d="M 593.5,594.5 C 593.959,599.515 592.959,604.181 590.5,608.5C 588,610.167 585.333,611.5 582.5,612.5C 577.784,612.879 573.45,611.879 569.5,609.5C 564.669,604.95 563.169,599.284 565,592.5C 569.395,584.897 575.895,582.397 584.5,585C 587.029,587.029 589.696,588.862 592.5,590.5C 593.246,591.736 593.579,593.07 593.5,594.5 Z"/></g>
<g><path style="opacity:0.973" fill="#342240" d="M 520.5,591.5 C 521.8,593.223 522.467,595.39 522.5,598C 522.467,600.61 521.8,602.777 520.5,604.5C 519.167,600.167 519.167,595.833 520.5,591.5 Z"/></g>
<g><path style="opacity:1" fill="#a88694" d="M 593.5,594.5 C 594.638,597.304 594.805,600.304 594,603.5C 593.303,605.584 592.136,607.251 590.5,608.5C 592.959,604.181 593.959,599.515 593.5,594.5 Z"/></g>
<g><path style="opacity:0.513" fill="#fa6f00" d="M 512.5,567.5 C 511.889,571.832 510.389,575.832 508,579.5C 506.755,587.129 505.921,594.795 505.5,602.5C 464.832,602.667 424.165,602.5 383.5,602C 381.852,592.646 380.186,583.146 378.5,573.5C 382.664,581.499 384.664,590.165 384.5,599.5C 424.167,599.5 463.833,599.5 503.5,599.5C 503.645,588.689 505.978,578.356 510.5,568.5C 511.183,568.137 511.85,567.804 512.5,567.5 Z"/></g>
<g><path style="opacity:0.761" fill="#412c48" d="M 249.5,590.5 C 250.8,592.223 251.467,594.39 251.5,597C 251.333,599.167 251.167,601.333 251,603.5C 250.617,604.056 250.117,604.389 249.5,604.5C 248.238,599.819 248.238,595.152 249.5,590.5 Z"/></g>
<g><path style="opacity:1" fill="#887079" d="M 569.5,609.5 C 573.45,611.879 577.784,612.879 582.5,612.5C 580.034,613.634 577.367,613.801 574.5,613C 572.119,612.777 570.453,611.61 569.5,609.5 Z"/></g>
<g><path style="opacity:0.412" fill="#583542" d="M 249.5,608.5 C 250.496,608.414 251.329,608.748 252,609.5C 253.165,614.836 254.998,619.836 257.5,624.5C 255.926,624.063 254.759,623.063 254,621.5C 252.567,617.114 251.067,612.78 249.5,608.5 Z"/></g>
<g><path style="opacity:0.622" fill="#4e2e3a" d="M 520.5,608.5 C 521.496,608.414 522.329,608.748 523,609.5C 524.295,616.22 526.462,622.554 529.5,628.5C 528.504,628.586 527.671,628.252 527,627.5C 524.792,621.105 522.625,614.772 520.5,608.5 Z"/></g>
<g><path style="opacity:0.239" fill="#55333f" d="M 638.5,605.5 C 637.827,614.789 634.494,622.789 628.5,629.5C 632.336,622.329 635.003,614.662 636.5,606.5C 637.183,606.137 637.85,605.804 638.5,605.5 Z"/></g>
<g><path style="opacity:0.655" fill="#4d2e39" d="M 366.5,611.5 C 363.655,621.518 358.655,630.351 351.5,638C 350.255,638.791 348.922,639.291 347.5,639.5C 355.531,632.115 361.031,623.115 364,612.5C 364.671,611.748 365.504,611.414 366.5,611.5 Z"/></g>
</svg>
